<svg xmlns="http://www.w3.org/2000/svg" viewBox="0 0 100 100"><path d="M98.825 28.441a1.656 1.656 0 0 0 .075-.165c.019-.045.031-.093.043-.14.007-.01.01-.021.013-.031a2 2 0 0 0 .032-.175c0-.016.003-.032.005-.049a1.37 1.37 0 0 0 .006-.128c.002-.022 0-.045-.001-.066a.893.893 0 0 0-.01-.115c-.002-.022-.004-.045-.008-.068l-.004-.036c-.004-.028-.014-.056-.02-.083-.005-.019-.008-.04-.016-.059a1.684 1.684 0 0 0-.058-.169l-.001-.004c-.005-.009-.01-.017-.013-.025-.021-.045-.042-.091-.067-.134-.009-.018-.02-.035-.031-.053a3.428 3.428 0 0 0-.065-.1c-.013-.018-.024-.035-.039-.051-.026-.032-.056-.063-.082-.093-.015-.013-.026-.028-.038-.04a1.597 1.597 0 0 0-.266-.21L80.66 15.581a1.468 1.468 0 0 0-.429-.18l-17.619-4.404a1.313 1.313 0 0 0-.166-.031l-.027-.003a1.654 1.654 0 0 0-.156-.01l-.017-.001H42.571a1.51 1.51 0 0 0-.688.165l-14.977 7.636-.019.012a1.414 1.414 0 0 0-.198.123l-.005.004-.001.001-13.796 10.273-.002.002a1.512 1.512 0 0 0-.384.422l-.007.01L1.921 47.219c-.018.03-.032.06-.048.089-.006.015-.016.029-.022.045a1.891 1.891 0 0 0-.069.17l-.01.035a1.295 1.295 0 0 0-.046.206 1.459 1.459 0 0 0-.015.131l-.004.035v.025c-.001.05 0 .1.003.149l.002.04c.005.062.015.124.028.183.003.016.009.029.012.045.009.035.017.069.028.104.004.011.009.02.012.031l.024.06c.015.039.031.076.05.112l.032.06c.021.037.042.072.065.107.012.016.022.032.033.049.035.049.074.096.115.14.008.009.017.015.025.023.035.036.072.071.109.104l.051.039c.034.026.068.05.103.073.012.007.021.015.032.022L57.053 82.48c.004 0 .006.002.012.004l.002.002.011.009.004.001c.05.029.103.055.153.077l.015.007c.009.004.021.007.028.011.009.003.016.005.021.011.013.002.022.008.034.01a.532.532 0 0 0 .077.025.468.468 0 0 1 .03.012 1.295 1.295 0 0 0 .115.025l.043.009h.004l.043.008c.054.006.107.012.16.013l.026.001.006.001.005-.001.069-.002c.01-.003.019-.006.026-.006.02 0 .039 0 .059-.002.002 0 .005 0 .007-.002.015 0 .026-.004.039-.006.022-.002.046-.004.067-.01.004-.002.012-.002.017-.002l.022-.004a.258.258 0 0 1 .021-.007c.015-.002.026-.007.041-.011.03-.008.06-.014.087-.023l.023-.007a.544.544 0 0 1 .052-.019c.022-.012.045-.02.067-.028l.049-.022.025-.011.014-.007c.015-.01.031-.018.048-.027l.062-.033c.01-.008.021-.014.032-.021a.196.196 0 0 1 .021-.012.196.196 0 0 1 .021-.018.444.444 0 0 0 .054-.04c.012-.008.022-.017.034-.024.013-.01.022-.021.036-.032l.009-.009a.313.313 0 0 1 .019-.014l.021-.021a.33.33 0 0 0 .037-.038c.017-.014.026-.027.041-.042.009-.011.019-.019.024-.027l.007-.007.009-.011.012-.015.024-.03c.006-.011.014-.017.021-.026l39.645-53.446c.009-.01.015-.022.021-.033a1.3 1.3 0 0 0 .069-.108l.031-.061zm-29.25-10.046l8.001 4.801-9.747-1.6 1.746-3.201zM33.347 32.462l7.174 10.522-12.612 9.89-8.155-11.515 13.593-8.897zm9.308 12.698l11.316 7.334-10.593 1.037H31.98l10.675-8.371zm9.761-14.7l12.254 8.333-6.797 12.621-13.225-8.574 7.768-12.38zm4.029 45.169l-10.88-19.268 11.312-1.107-.432 20.375zM17.991 44.111l6.153 8.685-8.867-1.808 2.714-6.877zM42.27 56.563c.033.14.083.275.157.405l9.81 17.369-20.573-17.774H42.27zm17.652-1.945l9.721-3.849-10.125 22.883.404-19.034zm11.971-7.997L61.73 50.643l5.725-10.627 12.324 2.464-7.886 4.141zm-3.818-9.572l-.942-12.498 16.434 2.698-.709 12.755-14.783-2.955zm18.498-9.341l8.114 1.159-2.442 3.141L86 38.053l.573-10.345zm-22.45-2.766l.781 10.346-9.76-6.638 8.979-3.708zM42.519 40.535l-6.09-8.932 12.585-1.421-6.495 10.353zm-21.887-3.372l4.958-8.924 5.066 2.363-10.024 6.561zm-5.815-5.545l6.828-2.517-5.359 9.646a1.508 1.508 0 0 0-.109 1.219l-9.02 4.418 7.66-12.766zM6.908 47.88l7.858-3.848-2.406 6.093-5.452-2.245zm19.995 8.572l16.225 14.021-26.542-16.125 10.317 2.104zm46.794-7.357l9.926-5.21-18.887 25.463 8.961-20.253zM90.5 25.208l-4.83-.69-13.243-7.946 6.845 1.711L90.5 25.208zM42.935 13.981H61.85l5.106 2.887-2.552 4.68-12.817 5.293-17.572 1.985-7.093-3.311 1.849-4.314 14.164-7.22z"/></svg>